<svg id="Layer_1" xmlns="http://www.w3.org/2000/svg" viewBox="0 0 196.92 196.92"><defs><style>.cls-1{fill:#f5ebdc;}.cls-2{fill:#d62300;}</style></defs><circle class="cls-1" cx="98.46" cy="98.46" r="98.46"></circle><path class="cls-2" d="M80.85,49c0-8.15,6.38-14.89,19.15-14.89S119.15,40.87,119.15,49c0,8.34-6.38,14.9-19.15,14.9S80.85,57.36,80.85,49Zm2.66,106.92a53,53,0,0,0,2.31-16.67v-42a27.57,27.57,0,0,0-2.31-11A7.54,7.54,0,0,1,89,76l13.83-2.66c8-1.59,11.35,1.6,11.35,7.63v58.33a53.61,53.61,0,0,0,2.12,16.67c1.78,6.21-.88,9.93-7.27,9.93H91C84.57,165.87,81.74,162.15,83.51,155.94Z" transform="translate(-2.45 -1.17)"></path></svg>